<svg xmlns="http://www.w3.org/2000/svg" xmlns:xlink="http://www.w3.org/1999/xlink" viewBox="0 0 100 125" version="1.1" x="0px" y="0px"><title>computer</title><desc>Created with Sketch.</desc><g stroke="none" stroke-width="1" fill="none" fill-rule="evenodd"><g fill-rule="nonzero" fill="#000000"><path d="M58.4747778,88.937945 L58.4747778,88.937945 L71.1269843,88.937945 C72.5604532,88.937945 73.7225092,90.1030697 73.7225092,91.533808 C73.7225092,92.9674636 72.5588022,94.129671 71.1269843,94.129671 L30.6308453,94.129671 C29.1973765,94.129671 28.0353204,92.9645464 28.0353204,91.533808 C28.0353204,90.1001525 29.1990275,88.937945 30.6308453,88.937945 L43.2830518,88.937945 L43.2830518,68.5928573 L11.9458894,68.5928573 C5.34921629,68.5928573 0,63.2482493 0,56.6525033 L0,17.810683 C0,11.2144028 5.34639864,5.87032897 11.9458894,5.87032897 L88.0541106,5.87032897 C94.6507837,5.87032897 100,11.214937 100,17.810683 L100,56.6525033 C100,63.2487835 94.6536014,68.5928573 88.0541106,68.5928573 L58.4747778,68.5928573 L58.4747778,88.937945 Z M5.191726,17.810683 L5.191726,56.6525033 C5.191726,60.3800777 8.21566795,63.4011313 11.9458894,63.4011313 L88.0541106,63.4011313 C91.7880954,63.4011313 94.808274,60.3796676 94.808274,56.6525033 L94.808274,17.810683 C94.808274,14.0831086 91.7843321,11.062055 88.0541106,11.062055 L11.9458894,11.062055 C8.21190463,11.062055 5.191726,14.0835187 5.191726,17.810683 Z M27.6136298,38.4643405 L36.7894376,47.6401484 C37.8042643,48.654975 37.8030762,50.3015221 36.7913915,51.3132069 C35.7776439,52.3269544 34.1348757,52.3277958 33.118333,51.3112531 L22.1089266,40.3018467 L22.10795,40.3008696 L22.1069728,40.2998929 C21.6004238,39.7933438 21.3467769,39.1297411 21.3480081,38.4628594 C21.3482372,37.7983359 21.6014549,37.1343061 22.1069728,36.6287882 L22.1079499,36.6278116 L22.1089266,36.6268344 L33.118333,25.617428 C34.1331596,24.6026014 35.7797067,24.6037894 36.7913915,25.6154742 C37.805139,26.6292218 37.8059804,28.27199 36.7894376,29.2885327 L27.6136298,38.4643405 Z M73.4484045,38.4643405 L64.2725966,29.2885327 C63.2560539,28.27199 63.2568952,26.6292218 64.2706428,25.6154742 C65.2823276,24.6037894 66.9288747,24.6026014 67.9437013,25.617428 L78.9531076,36.6268344 L78.9540844,36.6278116 L78.9550615,36.6287882 C79.4605793,37.1343061 79.713797,37.7983359 79.7140262,38.4628594 C79.7152574,39.1297411 79.4616105,39.7933438 78.9550615,40.2998929 L78.9540842,40.3008696 L78.9531076,40.3018467 L67.9437013,51.3112531 C66.9271585,52.3277958 65.2843904,52.3269544 64.2706428,51.3132069 C63.258958,50.3015221 63.25777,48.654975 64.2725966,47.6401484 L73.4484045,38.4643405 Z M53.4227981,20.0268288 C53.9118203,18.6832513 55.3909766,17.9881462 56.7475645,18.4819039 C58.0947601,18.9722429 58.7903028,20.4593223 58.3014247,21.8025037 L46.5772019,54.0145411 C46.0881797,55.3581187 44.6090234,56.0532238 43.2524355,55.5594661 C41.9052399,55.0691271 41.2096972,53.5820477 41.6985753,52.2388663 L53.4227981,20.0268288 Z"/></g></g><text x="0" y="115" fill="#000000" font-size="5px" font-weight="bold" font-family="'Helvetica Neue', Helvetica, Arial-Unicode, Arial, Sans-serif">Created by Rauan</text><text x="0" y="120" fill="#000000" font-size="5px" font-weight="bold" font-family="'Helvetica Neue', Helvetica, Arial-Unicode, Arial, Sans-serif">from the Noun Project</text></svg>