<svg xmlns="http://www.w3.org/2000/svg" xmlns:xlink="http://www.w3.org/1999/xlink" version="1.1" x="0px" y="0px" viewBox="0 0 100 125" style="enable-background:new 0 0 100 100;" xml:space="preserve"><style type="text/css">
	.st0{fill:none;stroke:#000000;stroke-width:2;stroke-linecap:round;stroke-linejoin:round;stroke-miterlimit:10;}
	.st1{stroke:#000000;stroke-width:2;stroke-linecap:round;stroke-linejoin:round;stroke-miterlimit:10;}
	.st2{fill:none;stroke:#000000;stroke-width:2;stroke-linejoin:round;stroke-miterlimit:10;}
</style><path d="M88.1,44.1L50,25.9c-0.3-0.1-0.6-0.1-0.9,0L10.9,44.1c-0.3,0.2-0.6,0.5-0.6,0.9s0.2,0.7,0.6,0.9l9.8,4.7v12.6  c0,1.7,0.8,3.3,2.3,4.3c3.9,2.7,14,8.6,27.1,8.6c7.9,0,17-2.2,26.3-8.6c1.4-1,2.3-2.6,2.3-4.3V50.3l2.9-1.4v14.1  c-1.2,0.4-2.1,1.6-2.1,2.9c0,1.1,0.6,2.1,1.4,2.6c-1.3,1.5-1.9,4.5-1.9,5.5c0,2,1.6,3.6,3.6,3.6s3.6-1.6,3.6-3.6  c0-1-0.6-3.9-1.9-5.5c0.9-0.6,1.4-1.5,1.4-2.6c0-1.4-0.9-2.5-2.1-2.9V48l4.6-2.2c0.3-0.2,0.6-0.5,0.6-0.9S88.5,44.2,88.1,44.1z   M82.6,75.7c-0.9,0-1.6-0.7-1.6-1.6c0-1.3,1-4,1.6-4.3c0.6,0.4,1.6,3,1.6,4.3C84.2,75,83.5,75.7,82.6,75.7z M82.6,67.2  c-0.6,0-1.1-0.5-1.1-1.1c0-0.6,0.5-1.1,1.1-1.1s1.1,0.5,1.1,1.1C83.7,66.7,83.2,67.2,82.6,67.2z M76.7,63.1c0,1.1-0.5,2.1-1.4,2.7  c-23.8,16.3-45.2,4.1-51.1,0c-0.9-0.6-1.4-1.6-1.4-2.7V51.5L49.1,64c0.1,0.1,0.3,0.1,0.4,0.1s0.3,0,0.4-0.1l26.8-12.7V63.1z   M49.5,62L13.7,45l35.9-17.1L85.4,45L49.5,62z"/><text x="0" y="115" fill="#000000" font-size="5px" font-weight="bold" font-family="'Helvetica Neue', Helvetica, Arial-Unicode, Arial, Sans-serif">Created by Made</text><text x="0" y="120" fill="#000000" font-size="5px" font-weight="bold" font-family="'Helvetica Neue', Helvetica, Arial-Unicode, Arial, Sans-serif">from the Noun Project</text></svg>